# xmcd
#
# Track frame offsets: 
#        182
#        17632
#        36222
#        54635
#
# Disc length: 977 seconds
#
# Revision: 2
# Processed by: cddbd v1.5.2PL0 Copyright (c) Steve Scherf et al.
# Submitted via: ExactAudioCopy v0.99pb4
#
DISCID=2b03cf04
DTITLE=Ol' Dirty Bastard - Brooklyn Zoo
DYEAR=1995
DGENRE=Hip-Hop
TTITLE0=Brooklyn Zoo (LP Version)
TTITLE1=Brooklyn Zoo (Lord Digga Remix)
TTITLE2=Give It To Ya Raw (LP Version)
TTITLE3=Give It To Ya Raw (SD50 Remix)
EXTD=
EXTT0=
EXTT1=
EXTT2=
EXTT3=
PLAYORDER=
